<mxfile host="app.diagrams.net" agent="Mozilla/5.0 (Windows NT 10.0; Win64; x64) AppleWebKit/537.36 (KHTML, like Gecko) Chrome/133.0.0.0 Safari/537.36" version="26.0.16">
  <diagram name="Страница — 1" id="_2W1UZmtLNmlRKv80bKQ">
    <mxGraphModel>
      <root>
        <mxCell id="0" />
        <mxCell id="1" parent="0" />
        <mxCell id="2" value="Создание сцены" style="whiteSpace=wrap;strokeWidth=2;verticalAlign=top;" vertex="1" parent="1">
          <mxGeometry x="8" y="8" width="405" height="2116" as="geometry" />
        </mxCell>
        <mxCell id="3" value="Тестирование и корректировка" style="whiteSpace=wrap;strokeWidth=2;verticalAlign=top;" vertex="1" parent="2">
          <mxGeometry x="46" y="43" width="330" height="486" as="geometry" />
        </mxCell>
        <mxCell id="4" value="Проверка совместимости элементов" style="whiteSpace=wrap;strokeWidth=2;" vertex="1" parent="3">
          <mxGeometry x="43" y="58" width="260" height="78" as="geometry" />
        </mxCell>
        <mxCell id="5" value="Устранение ошибок" style="whiteSpace=wrap;strokeWidth=2;" vertex="1" parent="3">
          <mxGeometry x="70" y="236" width="206" height="54" as="geometry" />
        </mxCell>
        <mxCell id="6" value="Доработка деталей" style="whiteSpace=wrap;strokeWidth=2;" vertex="1" parent="3">
          <mxGeometry x="71" y="390" width="203" height="54" as="geometry" />
        </mxCell>
        <mxCell id="7" value="" style="curved=1;startArrow=none;endArrow=block;exitX=0.5;exitY=1;entryX=0.5;entryY=0;" edge="1" parent="3" source="4" target="5">
          <mxGeometry relative="1" as="geometry">
            <Array as="points" />
          </mxGeometry>
        </mxCell>
        <mxCell id="8" value="" style="curved=1;startArrow=none;endArrow=block;exitX=0.5;exitY=1;entryX=0.5;entryY=0;" edge="1" parent="3" source="5" target="6">
          <mxGeometry relative="1" as="geometry">
            <Array as="points" />
          </mxGeometry>
        </mxCell>
        <mxCell id="9" value="Визуализация" style="whiteSpace=wrap;strokeWidth=2;verticalAlign=top;" vertex="1" parent="2">
          <mxGeometry x="63" y="579" width="294" height="462" as="geometry" />
        </mxCell>
        <mxCell id="10" value="Создание персонажей" style="whiteSpace=wrap;strokeWidth=2;" vertex="1" parent="9">
          <mxGeometry x="43" y="58" width="224" height="54" as="geometry" />
        </mxCell>
        <mxCell id="11" value="Создание окружения" style="whiteSpace=wrap;strokeWidth=2;" vertex="1" parent="9">
          <mxGeometry x="48" y="212" width="215" height="54" as="geometry" />
        </mxCell>
        <mxCell id="12" value="Работа с анимацией" style="whiteSpace=wrap;strokeWidth=2;" vertex="1" parent="9">
          <mxGeometry x="51" y="366" width="209" height="54" as="geometry" />
        </mxCell>
        <mxCell id="13" value="" style="curved=1;startArrow=none;endArrow=block;exitX=0.5;exitY=1;entryX=0.5;entryY=0;" edge="1" parent="9" source="10" target="11">
          <mxGeometry relative="1" as="geometry">
            <Array as="points" />
          </mxGeometry>
        </mxCell>
        <mxCell id="14" value="" style="curved=1;startArrow=none;endArrow=block;exitX=0.5;exitY=1;entryX=0.5;entryY=0;" edge="1" parent="9" source="11" target="12">
          <mxGeometry relative="1" as="geometry">
            <Array as="points" />
          </mxGeometry>
        </mxCell>
        <mxCell id="15" value="Разработка сценария" style="whiteSpace=wrap;strokeWidth=2;verticalAlign=top;" vertex="1" parent="2">
          <mxGeometry x="51" y="1091" width="319" height="462" as="geometry" />
        </mxCell>
        <mxCell id="16" value="Набросок структуры" style="whiteSpace=wrap;strokeWidth=2;" vertex="1" parent="15">
          <mxGeometry x="62" y="58" width="210" height="54" as="geometry" />
        </mxCell>
        <mxCell id="17" value="Разработка логики сцены" style="whiteSpace=wrap;strokeWidth=2;" vertex="1" parent="15">
          <mxGeometry x="43" y="212" width="249" height="54" as="geometry" />
        </mxCell>
        <mxCell id="18" value="Проработка деталей" style="whiteSpace=wrap;strokeWidth=2;" vertex="1" parent="15">
          <mxGeometry x="62" y="366" width="211" height="54" as="geometry" />
        </mxCell>
        <mxCell id="19" value="" style="curved=1;startArrow=none;endArrow=block;exitX=0.5;exitY=1;entryX=0.5;entryY=0;" edge="1" parent="15" source="16" target="17">
          <mxGeometry relative="1" as="geometry">
            <Array as="points" />
          </mxGeometry>
        </mxCell>
        <mxCell id="20" value="" style="curved=1;startArrow=none;endArrow=block;exitX=0.5;exitY=1;entryX=0.5;entryY=0;" edge="1" parent="15" source="17" target="18">
          <mxGeometry relative="1" as="geometry">
            <Array as="points" />
          </mxGeometry>
        </mxCell>
        <mxCell id="21" value="Определение требований" style="whiteSpace=wrap;strokeWidth=2;verticalAlign=top;" vertex="1" parent="2">
          <mxGeometry x="46" y="1603" width="330" height="486" as="geometry" />
        </mxCell>
        <mxCell id="22" value="Исследование концепции" style="whiteSpace=wrap;strokeWidth=2;" vertex="1" parent="21">
          <mxGeometry x="48" y="58" width="250" height="54" as="geometry" />
        </mxCell>
        <mxCell id="23" value="Определение основных элементов" style="whiteSpace=wrap;strokeWidth=2;" vertex="1" parent="21">
          <mxGeometry x="43" y="212" width="260" height="78" as="geometry" />
        </mxCell>
        <mxCell id="24" value="Анализ тематики" style="whiteSpace=wrap;strokeWidth=2;" vertex="1" parent="21">
          <mxGeometry x="80" y="390" width="186" height="54" as="geometry" />
        </mxCell>
        <mxCell id="25" value="" style="curved=1;startArrow=none;endArrow=block;exitX=0.5;exitY=1;entryX=0.5;entryY=0;" edge="1" parent="21" source="22" target="23">
          <mxGeometry relative="1" as="geometry">
            <Array as="points" />
          </mxGeometry>
        </mxCell>
        <mxCell id="26" value="" style="curved=1;startArrow=none;endArrow=block;exitX=0.5;exitY=1;entryX=0.5;entryY=0;" edge="1" parent="21" source="23" target="24">
          <mxGeometry relative="1" as="geometry">
            <Array as="points" />
          </mxGeometry>
        </mxCell>
      </root>
    </mxGraphModel>
  </diagram>
</mxfile>
